<svg width="200" height="28" viewBox="0 0 200 28" fill="none" xmlns="http://www.w3.org/2000/svg">
<path fill-rule="evenodd" clip-rule="evenodd" d="M41.2486 13.091C41.2486 7.97945 38.9998 3.34727 35.3722 -0.000244141L27.9702 6.87045C29.7008 8.45719 30.7763 10.6596 30.7763 13.091C30.7763 15.5224 29.7008 17.7247 27.9702 19.3116L35.3722 26.1822C38.9998 22.8347 41.2486 18.2025 41.2486 13.091Z" fill="white"/>
<path fill-rule="evenodd" clip-rule="evenodd" d="M10.4723 13.091C10.4723 10.6596 11.5468 8.45719 13.2774 6.87045L5.87553 -0.000244141C2.24886 3.34727 0 7.97945 0 13.091C0 18.2025 2.24886 22.8347 5.87553 26.1822L13.2774 19.3116C11.5468 17.7247 10.4723 15.5224 10.4723 13.091Z" fill="white"/>
<path fill-rule="evenodd" clip-rule="evenodd" d="M171.905 10.3728V21.5934C171.905 24.453 173.562 26.4021 176.981 26.3958C178.206 26.3958 178.928 26.2291 179.538 26.0174V23.581C178.889 23.8182 178.166 23.9592 177.232 23.9592C175.722 23.9592 174.893 23.0872 174.893 21.3111V10.3664H179.286V7.9299H174.893V3.78149H171.905V7.93632H169.202V10.3728H171.905ZM75.7052 16.9502V17.2323C75.7052 22.8426 79.4884 26.4717 84.809 26.4588C89.0562 26.4588 92.1901 24.5417 92.8394 20.8807H89.8511C89.4603 23.0093 87.7641 24.0544 84.8488 24.0544C80.9991 24.0544 78.9452 21.759 78.7994 17.6106H92.9985V16.6681C92.9985 10.1538 88.8904 7.60829 84.5308 7.60829C79.3427 7.60829 75.7052 11.4425 75.7052 16.9502ZM84.5308 10.0191C87.625 10.0191 89.6457 11.5195 89.9308 15.2832H78.9121C79.4157 12.0388 81.4695 10.0191 84.5308 10.0191ZM68.502 7.93098H65.5137V26.1596H68.502V16.1573C68.502 11.6626 70.9137 10.5085 74.6971 10.3354V7.61681C71.3113 7.71939 69.6879 9.14921 68.502 11.2074V7.93098ZM95.6587 20.548H98.574C98.7926 22.7088 99.9787 24.068 103.007 24.068C105.856 24.068 107.115 23.1256 107.115 21.1764C107.115 19.2593 105.637 18.6309 102.722 18.1115C97.8254 17.2395 96.1688 15.9123 96.1688 12.7449C96.1688 9.35951 99.5877 7.62192 102.543 7.62192C105.929 7.62192 108.844 8.94916 109.348 12.886H106.465C106.035 10.8983 104.882 10.0263 102.503 10.0263C100.343 10.0263 98.9384 11.0715 98.9384 12.6423C98.9384 14.2773 99.8728 14.9442 103.331 15.534C107.221 16.2329 109.957 17.0664 109.957 20.9327C109.957 24.2476 107.618 26.4724 103.04 26.4724C98.5409 26.4724 95.8441 24.2733 95.6587 20.548ZM136.273 7.93098H133.285H133.278V26.1596H136.267V15.1121C136.267 11.8357 138.751 10.1302 141.527 10.1302C144.555 10.1302 145.96 11.56 145.96 14.7659V26.1596H148.948V14.9711C148.948 9.67497 146.212 7.61681 142.323 7.61681C139.228 7.61681 137.135 9.11715 136.273 10.8227V7.93098ZM151.761 21.1071C151.761 16.8882 156.372 15.4584 161.196 15.4584H163.899V14.1311C163.899 11.2394 162.746 10.0212 159.864 10.0212C157.273 10.0212 155.829 11.0663 155.544 13.2976H152.556C152.953 9.14921 156.372 7.61681 160.01 7.61681C163.608 7.61681 166.888 9.04663 166.888 14.1311V26.1596H163.899V23.8578C162.495 25.5633 160.805 26.4738 158.029 26.4738C154.53 26.4738 151.761 24.8323 151.761 21.1071ZM163.899 19.7799V17.5165H161.309C157.525 17.5165 154.756 18.4206 154.756 21.1071C154.756 22.9922 155.69 24.172 158.32 24.172C161.481 24.172 163.899 22.6075 163.899 19.7799ZM181.553 17.2323V16.9502C181.553 11.4425 185.191 7.60829 190.379 7.60829C194.739 7.60829 198.847 10.1538 198.847 16.6681V17.6106H184.649C184.795 21.759 186.849 24.0544 190.697 24.0544C193.613 24.0544 195.308 23.0093 195.699 20.8807H198.688C198.04 24.5417 194.905 26.4588 190.658 26.4588C185.33 26.4717 181.553 22.8426 181.553 17.2323ZM195.78 15.2832C195.494 11.5195 193.474 10.0191 190.379 10.0191C187.319 10.0191 185.265 12.0388 184.761 15.2832H195.78ZM111.629 16.8866C111.629 11.6802 115.988 7.45488 121.375 7.45488C126.762 7.45488 131.122 11.6738 131.122 16.8866C131.122 22.093 126.762 26.3183 121.375 26.3183C115.995 26.3183 111.629 22.0992 111.629 16.8866ZM121.382 23.9139C125.457 23.9139 128.021 21.1568 128.021 17.0469V16.8032C128.021 12.5843 125.423 9.8657 121.382 9.8657C117.3 9.8657 114.736 12.5843 114.736 16.7647V17.0469C114.736 21.1952 117.267 23.9139 121.382 23.9139Z" fill="white"/>
</svg>
