<?xml version="1.0" encoding="utf-8"?>
<!-- Generator: Adobe Illustrator 23.0.3, SVG Export Plug-In . SVG Version: 6.00 Build 0)  -->
<svg version="1.1" id="Calque_1" xmlns="http://www.w3.org/2000/svg" xmlns:xlink="http://www.w3.org/1999/xlink" x="0px" y="0px"
	 viewBox="0 0 190.5 116.8" style="enable-background:new 0 0 190.5 116.8;" xml:space="preserve">
<style type="text/css">
	.st0{fill:#FCF2F2;}
</style>
<g>
	<path class="st0" d="M189.5,60.5c-0.7-1.2-1.5-2.1-2.6-2.9c-1.1-0.8-2.3-1.4-3.7-1.9c-1.4-0.5-2.8-0.9-4.3-1.2
		c-1.4-0.3-2.8-0.6-4.2-0.9c-1.4-0.3-2.6-0.6-3.7-1c-1.1-0.4-1.9-0.8-2.6-1.4c-0.7-0.6-1-1.3-1-2.2c0-0.8,0.2-1.4,0.6-1.8
		c0.4-0.5,0.8-0.8,1.4-1c0.6-0.2,1.2-0.4,1.8-0.5c0.7-0.1,1.3-0.1,1.9-0.1c1.8,0,3.4,0.3,4.7,1c1.3,0.7,2.1,2,2.2,4h9.6
		c-0.2-2.3-0.8-4.2-1.8-5.7c-1-1.5-2.2-2.7-3.7-3.6c-1.5-0.9-3.2-1.5-5-1.9c-1.9-0.4-3.8-0.6-5.8-0.6c-2,0-4,0.2-5.8,0.5
		c-1.9,0.4-3.6,1-5.2,1.9c-1,0.6-1.8,1.3-2.5,2.1c-1-0.9-2.2-1.8-3.5-2.5c-2.3-1.2-5-1.8-8.2-1.8c-2.8,0-5.3,0.5-7.6,1.5
		c-1.1,0.5-2.2,1.1-3.1,1.7v-3.8c-0.8-0.2-1.6-0.4-2.3-0.4c-1.3,0-2.6,0.2-3.9,0.6c-1.2,0.4-2.4,0.9-3.5,1.7
		c-1.1,0.7-2.1,1.6-2.9,2.6c-0.8,1-1.5,2.1-2,3.3h-0.1V39h-1c1.9-0.5,3.7-1.2,5.3-2.2c2.9-1.9,5.1-5,6.5-9.4h-8.9
		c-0.3,1.1-1.2,2.2-2.7,3.3c-1.5,1-3.2,1.5-5.2,1.5c-2.8,0-5-0.7-6.5-2.2c-1.5-1.5-2.3-3.8-2.5-7.1H134c0.2-2.8,0-5.6-0.7-8.2
		c-0.7-2.6-1.7-4.9-3.2-7c-1.5-2-3.4-3.7-5.7-4.9c-2.3-1.2-5-1.8-8.2-1.8c-2.8,0-5.3,0.5-7.6,1.5c-1.7,0.7-3.3,1.7-4.6,2.9V1.1H71.5
		v5.6c-0.4-0.8-0.8-1.6-1.3-2.3c-1.1-1.4-2.5-2.4-4.3-3.2c-1.8-0.8-4.2-1.2-7-1.2c-2.2,0-4.4,0.5-6.6,1.5c-2.1,1-3.9,2.6-5.2,4.9
		h-0.2V1H36.8v12.3c-0.1-0.3-0.2-0.6-0.3-0.9c-0.9-2.4-2.2-4.4-3.8-6.1c-1.7-1.7-3.6-3-6-3.9c-2.3-0.9-4.9-1.4-7.8-1.4
		c-2.9,0-5.5,0.5-7.8,1.4c-2.3,0.9-4.3,2.2-6,3.9C3.5,8,2.2,10.1,1.3,12.4c-0.9,2.4-1.3,5-1.3,8c0,2.9,0.4,5.6,1.3,7.9
		c0.9,2.4,2.2,4.4,3.8,6.1c1.7,1.7,3.6,3,6,3.9c1.5,0.6,3.2,1,5,1.2c-0.1,0.1-0.3,0.1-0.5,0.2c-2,1.1-3.6,2.6-5,4.6h-0.2V39h-10
		v38.6h10.6V55.3c0-1.9,0.3-3.4,0.8-4.6c0.5-1.2,1.2-2.1,2-2.7c0.8-0.6,1.6-1,2.4-1.3c0.8-0.2,1.5-0.3,2-0.3c1.7,0,3,0.3,3.8,0.9
		c0.9,0.6,1.5,1.3,1.9,2.3c0.4,0.9,0.6,2,0.6,3.1c0,1.1,0.1,2.3,0.1,3.4v21.7h10.6V56.2c0-1.2,0.1-2.4,0.3-3.6
		c0.2-1.2,0.5-2.2,1-3.1c0.5-0.9,1.2-1.7,2.2-2.2c0.9-0.6,2.1-0.9,3.6-0.9c1.5,0,2.7,0.3,3.6,0.7c0.9,0.5,1.5,1.2,2,2
		c0.5,0.8,0.7,1.8,0.8,3c0.1,1.1,0.2,2.4,0.2,3.7V77c-1,0.1-1.9,0.2-2.9,0.4c-2.1,0.4-4,1.1-5.6,2.1c-1.7,1-3,2.3-4.1,3.9
		c-0.6,0.8-1,1.8-1.3,2.9c-0.2-0.5-0.4-1-0.7-1.4c-1-1.7-2.3-3.2-3.8-4.3c-1.6-1.2-3.4-2-5.4-2.6c-2-0.6-4.1-0.9-6.3-0.9
		c-3,0-5.6,0.5-7.9,1.5c-2.3,1-4.3,2.4-5.9,4.1c-1.6,1.8-2.8,3.9-3.6,6.3c-0.8,2.4-1.2,5.1-1.2,7.9c0,2.7,0.4,5.2,1.3,7.5
		c0.9,2.3,2.1,4.3,3.7,5.9c1.6,1.7,3.5,2.9,5.8,3.9c2.3,0.9,4.8,1.4,7.5,1.4c4.8,0,8.8-1.3,11.9-3.8c1.2-1,2.2-2.1,3-3.4
		c0.2,0.8,0.4,1.5,0.7,2.2c0.7,1.4,1.6,2.6,2.8,3.5c1.2,0.9,2.5,1.6,4.1,2.1c1.6,0.4,3.3,0.7,5.1,0.7c2.4,0,4.7-0.3,6.9-1
		c2-0.6,3.8-1.7,5.4-3.1v3.2h10.4V87.6c0-2.3-0.5-4.2-1.5-5.5c-1-1.4-2.4-2.5-4-3.3c-1.2-0.6-2.6-1-4-1.3v-7.8c0.6,1,1.3,1.9,2,2.7
		c1.6,1.7,3.6,3,5.9,4c0.9,0.4,1.9,0.7,3,0.9v38.7H81V98.3c0-1.8,0.2-3.4,0.5-4.9c0.3-1.5,0.9-2.8,1.8-3.9c0.8-1.1,1.9-2,3.3-2.7
		c1.3-0.6,3-1,4.9-1c0.2,0,0.3,0,0.5,0v30h10.6V98.3c0-1.8,0.2-3.4,0.5-4.9c0.3-1.5,0.9-2.8,1.8-3.9c0.8-1.1,1.9-2,3.3-2.7
		c1.3-0.6,3-1,4.9-1c0.4,0,0.9,0,1.3,0.1c-0.5,0.8-0.9,1.7-1.2,2.6c-0.9,2.4-1.4,5-1.4,7.8c0,2.9,0.4,5.5,1.3,7.9
		c0.9,2.4,2.1,4.5,3.8,6.2c1.6,1.7,3.6,3.1,6,4c2.4,0.9,5,1.4,7.9,1.4c4.2,0,7.8-1,10.8-2.9c0.6-0.4,1.2-0.8,1.7-1.3
		c0.5,0.4,1,0.8,1.6,1.2c1.6,1,3.4,1.7,5.5,2.1c2,0.4,4.1,0.6,6.3,0.6c2.1,0,4.2-0.2,6.2-0.6c2-0.4,3.8-1.1,5.4-2.1
		c1.6-1,2.8-2.3,3.8-4c1-1.6,1.5-3.7,1.5-6.1c0-1.7-0.3-3.2-1-4.3c-0.7-1.2-1.6-2.1-2.7-2.9c-1.1-0.8-2.3-1.4-3.8-1.9
		c-1.4-0.5-2.9-0.9-4.3-1.2c-1.4-0.3-2.8-0.6-4.2-0.9c-1.4-0.3-2.6-0.6-3.7-1c-1.1-0.4-1.9-0.8-2.6-1.4c-0.7-0.6-1-1.3-1-2.2
		c0-0.8,0.2-1.4,0.6-1.8c0.4-0.5,0.9-0.8,1.4-1c0.6-0.2,1.2-0.4,1.8-0.5c0.7-0.1,1.3-0.1,1.9-0.1c1.8,0,3.4,0.3,4.7,1
		c1.3,0.7,2.1,2,2.2,4h9.7c-0.2-2.3-0.8-4.2-1.8-5.7c-1-1.5-2.2-2.7-3.7-3.6c-1.5-0.9-3.2-1.5-5-1.9c-1.9-0.4-3.8-0.6-5.8-0.6
		c-0.7,0-1.4,0.1-2.1,0.1c1.7-0.5,3.2-1.1,4.6-2c0.6-0.4,1.1-0.8,1.6-1.3c0.5,0.4,1,0.9,1.6,1.2c1.6,1,3.4,1.7,5.4,2.1
		s4.1,0.6,6.3,0.6c2.1,0,4.1-0.2,6.2-0.6c2-0.4,3.8-1.1,5.4-2.1c1.6-1,2.8-2.3,3.8-4c1-1.6,1.5-3.7,1.5-6.1
		C190.5,63.1,190.2,61.6,189.5,60.5z M108,14.1c0.3-0.9,0.7-1.8,1.3-2.6c0.6-0.8,1.5-1.5,2.6-2c1.1-0.6,2.4-0.8,4-0.8
		c2.5,0,4.3,0.7,5.5,2c1.2,1.3,2,3.3,2.5,5.8h-16.4C107.6,15.8,107.8,15,108,14.1z M23.2,31.1c-1.2,0.7-2.6,1-4.3,1
		c-1.7,0-3.1-0.3-4.3-1c-1.1-0.7-2-1.6-2.7-2.7c-0.7-1.1-1.2-2.4-1.4-3.8c-0.3-1.4-0.4-2.8-0.4-4.3c0-1.5,0.1-2.9,0.4-4.3
		c0.3-1.4,0.8-2.7,1.4-3.8c0.7-1.1,1.6-2,2.7-2.7c1.1-0.7,2.6-1,4.3-1c1.7,0,3.1,0.3,4.3,1c1.2,0.7,2.1,1.6,2.8,2.7
		c0.7,1.1,1.2,2.3,1.5,3.8c0.3,1.4,0.4,2.9,0.4,4.3c0,1.5-0.1,2.9-0.4,4.3c-0.3,1.4-0.8,2.7-1.5,3.8C25.3,29.6,24.3,30.5,23.2,31.1z
		 M38.3,39.9c-2,1.3-3.5,2.8-4.7,4.5c-1-2.4-2.6-4.1-4.6-5c-0.9-0.4-1.9-0.7-2.9-1c0.2-0.1,0.4-0.1,0.6-0.2c2.3-0.9,4.3-2.2,6-3.9
		c1.6-1.7,2.9-3.7,3.8-6.1c0.1-0.3,0.2-0.6,0.3-0.9v12.2h2C38.7,39.7,38.5,39.8,38.3,39.9z M90.1,9L73,28.2V15.9
		c0-2.4-0.2-4.6-0.6-6.5c0-0.1-0.1-0.2-0.1-0.4L90.1,9L90.1,9z M70.9,47.3c1.1-0.5,2.4-0.8,4-0.8c2.5,0,4.3,0.7,5.5,2
		c1.2,1.3,2.1,3.3,2.5,5.9H66.5c0-0.7,0.2-1.5,0.5-2.4c0.3-0.9,0.7-1.8,1.4-2.6C69,48.5,69.8,47.8,70.9,47.3z M80.2,39.5h15.1V41
		h-6.1v4.7c0-0.1-0.1-0.1-0.1-0.2c-1.5-2-3.4-3.7-5.7-4.9C82.4,40.2,81.4,39.8,80.2,39.5z M58.5,101.2c0,0.6-0.1,1.4-0.2,2.4
		c-0.1,1-0.4,1.9-1,2.9c-0.5,1-1.4,1.8-2.5,2.5c-1.1,0.7-2.7,1-4.8,1c-0.8,0-1.6-0.1-2.4-0.2c-0.8-0.1-1.5-0.4-2.1-0.8
		c-0.6-0.4-1.1-0.9-1.4-1.5c-0.3-0.6-0.5-1.4-0.5-2.3c0-1,0.2-1.8,0.5-2.4c0.3-0.6,0.8-1.2,1.4-1.6c0.6-0.4,1.2-0.7,2-1
		c0.8-0.2,1.5-0.4,2.3-0.6c0.8-0.1,1.7-0.3,2.5-0.4c0.8-0.1,1.6-0.2,2.4-0.4c0.8-0.2,1.5-0.3,2.1-0.6c0.7-0.2,1.2-0.5,1.6-0.9
		L58.5,101.2L58.5,101.2z M57.5,91.4c-0.7,0.6-1.6,1-2.8,1.3c-1.2,0.3-2.5,0.5-4,0.7c-1.5,0.1-3.1,0.3-4.6,0.6
		c-1.6,0.2-3.1,0.6-4.7,1c-1.5,0.4-2.9,1-4.1,1.9c-1.2,0.8-2.2,1.9-2.9,3.3c-0.1,0.2-0.2,0.4-0.3,0.6h-7.6c-0.3,2.3-1.1,4.1-2.4,5.4
		c-1.3,1.3-3.1,2-5.5,2c-1.6,0-2.9-0.4-4-1.1c-1.1-0.7-1.9-1.6-2.6-2.7c-0.6-1.1-1.1-2.3-1.4-3.7c-0.3-1.4-0.4-2.7-0.4-4
		c0-1.4,0.1-2.7,0.4-4.1c0.3-1.4,0.8-2.7,1.4-3.8c0.7-1.2,1.6-2.1,2.7-2.8c1.1-0.7,2.4-1.1,4-1.1c4.3,0,6.8,2.1,7.4,6.3h9.8
		c0-0.5-0.1-1-0.2-1.5h9c0.2-2.1,0.9-3.5,2.1-4.4c1.2-0.9,2.8-1.3,4.9-1.3c0.9,0,1.8,0.1,2.6,0.2c0.8,0.1,1.5,0.4,2.1,0.7
		c0.6,0.4,1.1,0.9,1.5,1.5c0.4,0.7,0.5,1.6,0.5,2.7C58.5,90,58.2,90.9,57.5,91.4z M59,47.9c-0.2-0.9-0.4-1.7-0.7-2.5
		c-0.7-1.8-1.7-3.2-2.9-4.3c-1.2-1.1-2.7-1.9-4.5-2.4c-1.1-0.3-2.3-0.5-3.6-0.6V19.4c0-3.9,0.6-6.7,2-8.5c1.3-1.7,3.4-2.6,6.3-2.6
		c2.5,0,4.3,0.8,5.3,2.4c1,1.6,1.5,3.9,1.5,7.1v21.8h7.2c-0.7,0.2-1.4,0.4-2.1,0.7c-2.3,1-4.3,2.4-5.9,4.1
		C60.6,45.5,59.8,46.6,59,47.9z M95.3,77v-0.6C94.4,76.1,93.7,76,93,76c-1.4,0-2.7,0.2-3.9,0.6c-1.3,0.4-2.4,1-3.5,1.7
		c-1.1,0.7-2.1,1.6-2.9,2.6c-0.8,1-1.5,2.1-2,3.3h-0.1v-7.2c2-0.5,3.8-1.2,5.4-2.2c2.9-1.9,5.1-5.1,6.6-9.5h-8.9
		c-0.3,1.2-1.2,2.3-2.7,3.3c-1.5,1-3.2,1.6-5.3,1.6c-2.9,0-5-0.7-6.6-2.2c-1.5-1.5-2.4-3.9-2.5-7.2h26.6c0.2-2.9,0-5.6-0.7-8.2
		c-0.4-1.8-1.1-3.4-1.9-4.9h4.8v21.5c0,1.8,0.3,3.3,0.9,4.4c0.6,1.1,1.4,2,2.5,2.6c0.5,0.3,1.1,0.5,1.7,0.7L95.3,77L95.3,77z
		 M84,31.6L98,15.7c-0.3,1.5-0.5,3.1-0.5,4.7c0,2.8,0.4,5.4,1.3,7.8c0.4,1.2,1,2.3,1.6,3.3H84z M107.2,78.3
		c-1.1,0.7-2.1,1.6-2.9,2.6c-0.8,1-1.5,2.1-2,3.3h-0.1v-6.8c0.1,0,0.2,0.1,0.3,0.1c1.4,0.2,2.9,0.3,4.4,0.3c0.3,0,0.7,0,1.2,0
		C107.7,78,107.4,78.1,107.2,78.3z M112.5,76.2c-0.5,0.1-0.9,0.2-1.4,0.3c0-2.1,0-6.2,0-6.5c0,0-1.1,0.1-1.6,0.1
		c-1.7,0-2.8-0.3-3.4-0.8c-0.6-0.6-0.8-1.7-0.8-3.4V47.7h7.2L112.5,76.2L112.5,76.2z M112.5,41h-7.2v-1.5h0.1v-2.8
		c0.9,0.6,1.9,1.1,3,1.6c1.3,0.5,2.7,0.9,4.1,1.1C112.5,39.4,112.5,41,112.5,41z M139.9,52c0.3-0.9,0.7-1.8,1.4-2.6
		c0.6-0.8,1.5-1.5,2.6-2c1.1-0.5,2.4-0.8,4-0.8c2.5,0,4.3,0.7,5.5,2c1.2,1.3,2.1,3.3,2.5,5.9h-16.4C139.5,53.7,139.6,52.9,139.9,52z
		 M116.9,82.5v-4.9h6.2V60.2c0-1.7,0.2-3.3,0.5-4.8c0.3-1.5,0.9-2.8,1.8-3.9c0.8-1.1,1.9-2,3.2-2.6c1-0.5,2.1-0.8,3.4-0.9
		c-0.5,0.9-1,1.8-1.4,2.8c-0.9,2.4-1.4,4.9-1.4,7.7c0,2.8,0.4,5.5,1.3,7.8c0.9,2.4,2.1,4.4,3.7,6.1c1.6,1.7,3.6,3,5.9,3.9
		c2.3,0.9,4.9,1.4,7.8,1.4c0.3,0,0.6,0,1-0.1c-1.4,0.4-2.6,0.9-3.8,1.6c-0.9,0.5-1.7,1.2-2.4,2c-1.1-1-2.3-1.9-3.7-2.6
		c-2.4-1.2-5.1-1.8-8.3-1.8c-2.8,0-5.4,0.5-7.7,1.5c-2.3,1-4.3,2.4-6,4.1C117,82.3,117,82.4,116.9,82.5z M138.7,92.3h-16.7
		c0-0.7,0.2-1.5,0.5-2.5c0.3-0.9,0.7-1.8,1.4-2.6c0.7-0.8,1.5-1.5,2.6-2.1c1.1-0.6,2.4-0.8,4.1-0.8c2.5,0,4.4,0.7,5.6,2
		C137.4,87.7,138.2,89.7,138.7,92.3z M151.9,98.5c3.6,0.8,6.4,1.5,8.5,2.3c2,0.8,3,1.9,3,3.4c0,0.9-0.2,1.7-0.6,2.3
		c-0.4,0.6-1,1.1-1.6,1.4c-0.6,0.4-1.4,0.6-2.1,0.8c-0.8,0.2-1.5,0.3-2.2,0.3c-1,0-2-0.1-2.9-0.4c-0.9-0.2-1.8-0.6-2.5-1.1
		c-0.7-0.5-1.3-1.1-1.7-1.9c-0.5-0.8-0.7-1.7-0.7-2.8h-9.7c0,0.2,0,0.5,0.1,0.7h-0.1c-0.3,1.2-1.3,2.3-2.7,3.3
		c-1.5,1-3.3,1.6-5.3,1.6c-2.9,0-5.1-0.7-6.6-2.2c-1.5-1.5-2.4-3.9-2.5-7.2h26.9c0-0.4,0-0.7,0-1.1C149.9,98,150.9,98.3,151.9,98.5z
		 M179.8,68.4c-0.4,0.6-1,1.1-1.6,1.4c-0.6,0.4-1.4,0.6-2.1,0.8c-0.8,0.2-1.5,0.3-2.2,0.3c-1,0-1.9-0.1-2.9-0.4
		c-0.9-0.2-1.7-0.6-2.5-1.1c-0.7-0.5-1.3-1.1-1.7-1.9c-0.5-0.8-0.7-1.7-0.7-2.8h-9.6c0,0.2,0,0.5,0.1,0.7h-0.1
		c-0.3,1.2-1.2,2.2-2.7,3.3c-1.5,1-3.2,1.5-5.3,1.5c-2.9,0-5-0.7-6.5-2.2c-1.5-1.5-2.3-3.9-2.5-7.1h26.5c0-0.4,0-0.8,0-1.2
		c1,0.3,1.9,0.6,3,0.8c3.6,0.8,6.4,1.5,8.4,2.3c2,0.8,3,1.9,3,3.4C180.4,67,180.2,67.8,179.8,68.4z M181.9,102.8
		c-3.6,0-6.5,2.9-6.5,6.5s2.9,6.5,6.5,6.5c3.6,0,6.5-2.9,6.5-6.5C188.4,105.7,185.5,102.8,181.9,102.8z"/>
</g>
</svg>
